<svg xmlns="http://www.w3.org/2000/svg" width="148" height="148" viewBox="-27.468 -89.081 295.875 334.072"><path fill="#2BA9E0" d="M111.747 117.76c-29.125 0-52.731 23.606-52.731 52.724s23.606 52.729 52.731 52.729c29.111 0 52.717-23.61 52.717-52.729.001-29.118-23.605-52.724-52.717-52.724zm65.56-10.06c15.622 16.314 25.238 38.416 25.238 62.783 0 30.856-15.41 58.104-38.935 74.508 43.481-13.416 79.46-46.099 95.565-85.688 22.271-54.76 1.535-95.981-33.277-133.35 1.06 4.838 1.654 9.853 1.654 15.007.002 31.694-21.248 58.41-50.245 66.74zm-59.542-66.738c0 22.275 18.064 40.331 40.337 40.331 22.273 0 40.327-18.057 40.327-40.331 0-22.27-18.055-40.325-40.327-40.325s-40.337 18.055-40.337 40.325z"/><path fill="#2BA9E0" d="M42.289 228.954c-13.32-15.801-21.346-36.19-21.346-58.471 0-46.479 34.933-84.773 79.968-90.13a69.108 69.108 0 0 1-12.267-39.392c0-38.352 31.092-69.448 69.458-69.448 3.167 0 6.279.234 9.327.645-22.721-19.609-45.392-39.496-63.287-61.24C113.283 6.136 17.423-28.462-18.012 59.28c-23.782 58.869-2.349 131.644 60.301 169.674z"/></svg>