<?xml version="1.0" ?><svg id="Layer_1" style="enable-background:new 0 0 166.7 189;" version="1.1" viewBox="0 0 166.7 189" xml:space="preserve" xmlns="http://www.w3.org/2000/svg" xmlns:xlink="http://www.w3.org/1999/xlink" width="148" height="148"><style type="text/css">
	.st0{fill:#005A8F;}
	.st1{fill:#FFFFFF;}
	.st2{fill:#0E78BE;}
	.st3{fill:#044A75;}
	.st4{fill:#8ACBF0;}
	.st5{fill:none;}
</style><g><path class="st0" d="M123,36.8c-9.4-5.9-18.3-8.2-27.2-14.1C90.2,19,82.6,10.1,76.2,2.5c-1.2,12.3-5,17.3-9.3,20.8   c-9.1,7.1-14.8,9.3-22.6,13.5c-6.6,3.4-42.4,24.8-42.4,70.7s38.6,79.8,81.6,79.8c42.9,0,80.1-31.2,80.1-78.3   C163.6,61.8,128.7,40.4,123,36.8z"/><path class="st1" d="M108.5,147.4c2.8,0,5.9,0.2,8,1.6c2.1,1.4,3.4,4.6,4.1,6.4c0.7,1.8,0,2.8-1.4,3.6c-1.2,0.7-1.4,0.4-2.7-2   c-1.2-2.3-2.3-4.6-8.5-4.6c-6.2,0-8.2,2.1-11.2,4.6c-3,2.5-4.1,3.4-5.2,2c-1.1-1.4-0.7-2.9,1.2-4.6c2-1.8,5.2-4.6,8.2-5.9   C104.1,147.2,105.7,147.4,108.5,147.4L108.5,147.4z"/><path class="st1" d="M79,167.7c3.6,2.9,8.9,5.2,20.3,5.2s19.4-3.2,23-5.9c1.6-1.2,2.3-0.2,2.5,0.5c0.2,0.7,0.5,1.8-0.7,3   c-0.9,0.9-9.1,6.6-18.7,7.5c-9.6,0.9-22.6,1.4-30.4-5.7c-1.2-1.2-0.9-3,0-3.7c0.9-0.7,1.6-1.2,2.7-1.2S78.5,167.3,79,167.7   L79,167.7z"/><path class="st2" d="M35.4,154.2c13.5-0.2,16-2.5,28-7.8c64.5-28.8,76.4-55.2,78.7-61.3c2.3-6.1,5.7-15.8,2.1-26.7   c-0.7-2.1-1.2-3.8-1.6-5.1c-8.6-9.6-17.1-14.8-19.6-16.4c-9.3-5.9-18.3-8.2-27.2-14.1c-5.5-3.6-13.2-12.6-19.6-20.3   c-1.2,12.3-4.8,17.5-9.3,20.8c-9.1,7.1-14.8,9.3-22.6,13.5c-6.6,3.6-42.4,24.8-42.4,70.7c0,14.7,3.9,28.1,10.7,39.6l1.8-0.1   C18.1,150.4,24,154.3,35.4,154.2z"/><path class="st3" d="M123,36.8c-9.3-5.9-18.3-8.2-27.2-14.1c-5.5-3.6-13.2-12.6-19.6-20.3c-1.2,12.3-4.8,17.5-9.3,20.8   c-9.1,7.1-14.8,9.3-22.6,13.5c-6.6,3.6-42.4,24.8-42.4,70.7c0,14.7,3.9,28.1,10.7,39.6c14.4,24.5,41.6,40.2,70.9,40.2   c42.9,0,80.1-31.2,80.1-78.3c0-25.9-10.5-44-21-55.7C134,43.7,125.5,38.4,123,36.8z M144.6,57.7c11.7,14.6,17.6,31.9,17.6,51.3   c0,11.3-2.1,21.9-6.4,31.6c-4,9.2-9.8,17.4-17.2,24.3c-14.6,13.6-34.2,21.1-55.2,21.1c-10.4,0-20.6-2-30.3-5.9   c-9.6-3.9-18.2-9.4-25.6-16.4c-15.6-14.8-24.3-34.7-24.3-56.1c0-19.1,6.2-36,18.4-50.4c9.3-11,19.4-17,23.3-19.1   c1.9-1,3.7-1.9,5.4-2.8c5.4-2.8,10.4-5.4,17.4-10.8c3.7-2.8,7.7-7.3,9.4-18.7c5.9,7,12.7,14.9,17.9,18.2c4.6,3.1,9.4,5.2,14,7.3   c4.3,2,8.8,4,13.3,6.8c0,0,0.2,0.1,0.2,0.1C135.4,46.2,142.3,54.8,144.6,57.7z"/><path class="st4" d="M77,6c2.5,7.3,2.1,11,2.1,12.6c0,1.6-0.9,5.9-3.7,8c-1.2,0.9-1.6,1.6-1.6,1.8c0,0.7,1.6,1.2,1.6,2.8   c0,2-0.9,5.9-10.3,15.3c-9.4,9.4-23,17.8-33.5,23c-10.5,5.2-15.5,4.8-16.9,2.3c-1.4-2.5,0.5-8,7.1-15.3   c6.6-7.3,27.4-17.8,27.4-17.8l26-18.2l1.4-6.9"/><path class="st1" d="M77,5.8c-1.6,11.8-5.2,15.3-10,19.1c-8,6.1-15.8,9.8-17.6,10.7c-4.6,2.3-21.4,11.6-30.1,24.9   c-2.7,4.1,0,5.7,0.5,6.1c0.5,0.4,6.6,1.1,19.6-6.8c13-7.8,18.7-12.5,26-20.1c3.9-4.1,4.5-6.4,4.5-7.5c0-1.2-0.9-1.8-2.3-2.1   c-0.7-0.2-0.9-0.5,0-1.1c0.9-0.5,4.6-2.3,5.5-3c0.9-0.7,5.2-3.6,5.3-8.2C78.6,13.1,78.3,9.9,77,5.8L77,5.8z"/><path class="st1" d="M37,135.3c0.2-13.9,13.2-26.9,29.6-27.1c20.8-0.2,35.3,20.7,45.8,20.5c8.9-0.2,26-17.6,34.4-17.6   c8.9,0,11.4,9.3,11.4,14.8c0,5.5-1.8,15.5-6.1,21.7c-4.3,6.2-6.9,8.5-11.9,8.2c-6.4-0.5-19.2-20.5-27.4-20.8   c-10.3-0.4-32.8,21.5-50.4,21.5c-10.7,0-13.9-1.6-17.5-3.9C39.5,148.8,36.8,143.1,37,135.3L37,135.3z"/><path class="st5" d="M144.2,58.4c3.6,10.9,0.2,20.7-2.1,26.7s-14.2,32.4-78.7,61.3c-11.9,5.3-14.4,7.7-28,7.8   c-11.4,0.2-17.3-3.7-21-7.1l-1.8,0.1c14.4,24.5,41.6,40.2,70.9,40.2c42.9,0,80.1-31.2,80.1-78.3c0-25.9-10.5-44-21-55.7   C143,54.6,143.5,56.3,144.2,58.4z"/></g></svg>